<svg enable-background="new 0 0 1870.3 509.8" viewBox="0 0 1870.3 509.8" xmlns="http://www.w3.org/2000/svg"><g clip-rule="evenodd" fill="#230078" fill-rule="evenodd"><path d="m751.7 309.6c-12.7 13.2-30.4 20.4-48.8 19.7h-45.7v-143.6h45.7c18.3-.7 36.1 6.5 48.8 19.7 12.5 13.3 18.8 30.7 18.8 52 0 21.2-6.2 38.7-18.8 52m33-136.6c-21.2-22.4-50.9-34.9-81.8-34.2h-94.8v237.8h94.8c30.9.7 60.6-11.8 81.8-34.3 21.8-22.7 33.7-53.1 32.9-84.6.7-31.5-11.1-62-32.9-84.7"/><path d="m927.1 336.1c-11.8.4-23.3-4.2-31.6-12.6-16.9-18.2-16.9-46.4 0-64.6 8.3-8.5 19.7-13.1 31.6-12.6 11.8-.4 23.3 4.2 31.6 12.6 16.9 18.2 16.9 46.4 0 64.6-8.4 8.4-19.8 13-31.6 12.6m64.1-108.9c-35.1-35.4-92.2-35.6-127.6-.6-17.2 17-26.8 40.3-26.7 64.5-1 49.9 38.5 91.1 88.4 92.2 49.9 1 91.1-38.5 92.2-88.4 0-1.3 0-2.5 0-3.8.3-24-9.2-47.1-26.3-63.9"/><path d="m1200.3 205.9-65 170.6h-51.3l-64.8-170.6h50.7l39.7 114.7 40-114.7z"/><g transform="translate(-8)"><path d="m1258 274c2.2-8.9 7.2-16.9 14.3-22.6 8.1-5.9 18-9 28-8.6 9.2-.1 18.2 2.7 25.6 8.1 7.4 5.7 12.5 13.9 14.3 23zm104.4-46.8c-16-17.1-38.5-26.6-61.9-26-26.2 0-48.1 8.6-64.8 25.7-16.8 17.1-25.9 40.3-25.3 64.3-.7 24.1 8.6 47.4 25.6 64.6 17 16.8 39.6 25.4 67.8 25.4 32.7 0 57.6-12.2 74.3-36.5l1-1.2-37.4-21.5-.7.9c-8.2 10.8-20.6 16.3-36.6 16.3-24.6 0-39.5-9.5-45.5-28.7h126l.3-1.3c1.1-6 1.7-12 1.7-18 .5-23.7-8.3-46.7-24.5-64z"/><path d="m1470.1 250.3v68.5c-.4 4.3 1 8.5 3.9 11.6 3.4 2.7 7.5 4.2 11.8 4.3h7.9c3.9 0 8.2 0 13-.4h1.4v42.1h-1.3c-7.5.9-15 1.4-22.5 1.4-18.5 0-32.3-3.4-41.4-10-12.6-9.2-18.9-25.7-18.9-49.1v-68.3h-29.3v-44.4h29.3v-33.6l46.1-14v47.6h37.9v44.4z"/><path d="m1613.2 337.2c-12.1.4-23.7-4.3-32.2-12.9-8.6-8.8-13.2-20.8-12.8-33.2-.4-12.3 4.2-24.2 12.8-33 8.5-8.6 20.2-13.3 32.2-12.9 12.1-.3 23.9 4.3 32.5 12.9 8.6 8.8 13.2 20.7 12.8 33 .5 12.3-4.2 24.3-12.8 33.2-8.6 8.5-20.3 13.2-32.5 12.9zm45.3-131.3v17.4c-13.1-14.7-31-22.1-53.3-22.1-22.4-.2-43.8 9.3-58.7 26-16.2 17.3-25 40.2-24.4 63.9-.5 23.7 8.2 46.7 24.4 64 14.8 16.8 36.2 26.3 58.6 26.1 22.3 0 40.3-7.3 53.3-22.1v17.3h46.1v-170.5z"/><path d="m1744.4 180.2c-5.4-5.2-8.4-12.3-8.3-19.7 0-7.4 3-14.6 8.3-19.7 5.1-5.5 12.3-8.6 19.7-8.4 15.5-.2 28.1 12.2 28.3 27.7.1 7.6-2.9 14.9-8.3 20.2-5.3 5.3-12.5 8.3-20 8.2-7.3-.1-14.5-3.1-19.7-8.3"/></g><path d="m1733.1 376.5h46.2v-170.6h-46.2z"/><path d="m1816.2 376.5h46.1v-248h-46.1z"/><path d="m229.1 444.4-110.6 63.2v-126.4l-110.5-63.1 110.6-63.2 110.6 63.2v126.3z"/><path d="m450.2 318.1-110.6 63.2v-126.4l-110.5-63.9 110.6-62.5 110.6 63.2v126.4z"/><path d="m229.1 191.7-110.6 63.2v-126.4l-110.5-63.1 110.6-63.2 110.6 63.2v126.3z"/></g></svg>