<?xml version="1.0" encoding="UTF-8" standalone="no"?>
<!-- Generator: Adobe Illustrator 13.0.1, SVG Export Plug-In . SVG Version: 6.00 Build 14948)  -->

<svg
   version="1.1"
   id="Layer_1"
   x="0px"
   y="0px"
   width="718.66217"
   height="720.00006"
   viewBox="0 0 129.93492 130.23801"
   enable-background="new 0 0 129.996 130.238"
   xml:space="preserve"
   sodipodi:docname="gsa.svg"
   xmlns:inkscape="http://www.inkscape.org/namespaces/inkscape"
   xmlns:sodipodi="http://sodipodi.sourceforge.net/DTD/sodipodi-0.dtd"
   xmlns="http://www.w3.org/2000/svg"
   xmlns:svg="http://www.w3.org/2000/svg"><defs
   id="defs4" /><sodipodi:namedview
   id="namedview4"
   pagecolor="#ffffff"
   bordercolor="#000000"
   borderopacity="0.25"
   inkscape:showpageshadow="2"
   inkscape:pageopacity="0.0"
   inkscape:pagecheckerboard="0"
   inkscape:deskcolor="#d1d1d1" />&#10;<rect
   fill="#00538e"
   width="129.996"
   height="130.23801"
   id="rect1"
   x="-0.030556945"
   y="0" />&#10;<path
   fill="#ffffff"
   d="m 78.580443,96.076 c 0,9.138 -7.175,12.953 -15.451,12.688 -2.938,-0.095 -5.799,-0.838 -8.916,-1.855 l 0.707,-6.578 c 2.638,1.086 6.057,2.263 8.92,2.219 3.74,-0.058 7.477,-1.794 7.477,-6.124 0,-3.335 -2.67,-4.976 -5.252,-6.283 -5.709,-2.896 -12.275,-4.907 -12.275,-12.998 0,-7.65 6.084,-11.64 13.625,-11.64 2.741,0 6.014,0.477 9.299,1.641 l -0.985,6.478 c -3.577,-1.403 -5.14,-1.901 -8.078,-1.901 -3.253,0 -6.597,1.143 -6.597,4.896 0,2.933 3.01,4.456 5.248,5.573 6.065,3.026 12.278,5.511 12.278,13.884"
   id="path1" />&#10;<path
   fill="#ffffff"
   d="m 44.530443,106.8 c -2.632,0.901 -6.662,1.964 -13.092,1.964 -13.195,0 -22.0269999,-8.529 -22.0269999,-21.805 0,-12.882 9.3749999,-21.455 22.0859999,-21.455 6.036,0 8.727,0.896 12.541,2.212 l -0.574,7.216 c -3.51,-2.294 -6.498,-3.211 -11.674,-3.211 -9.09,0 -15.158,6.578 -15.115,15.412 0.043,9.506 6.648,15.416 14.822,15.416 2.437,0 4.508,-0.178 5.996,-0.569 V 91.15 h -7.861 v -6.103 h 14.898 V 106.8"
   id="path2" />&#10;<polyline
   fill="#ffffff"
   points="102.041,64.587 112.063,86.918 105.08,86.918 102.041,79.497 98.996,86.918 92.014,86.918   102.041,64.587 "
   id="polyline2"
   transform="translate(-0.03055694)" />&#10;<polyline
   fill="#ffffff"
   points="112.178,87.179 121.507,108.029 114.176,108.029 107.203,91.839 112.178,87.179 "
   id="polyline3"
   transform="translate(-0.03055694)" />&#10;<polyline
   fill="#ffffff"
   points="91.9,87.183 96.873,91.841 93.199,100.24 102.027,95.611 107.109,99.525 89.727,108.031   82.57,108.031 91.9,87.183 "
   id="polyline4"
   transform="translate(-0.03055694)" />&#10;</svg>
