<?xml version="1.0" encoding="UTF-8" standalone="no"?>
<svg
   height="68.035004"
   viewBox="0 0 247.99809 68.034767"
   width="247.99809"
   version="1.1"
   id="svg3"
   sodipodi:docname="sba.svg"
   xmlns:inkscape="http://www.inkscape.org/namespaces/inkscape"
   xmlns:sodipodi="http://sodipodi.sourceforge.net/DTD/sodipodi-0.dtd"
   xmlns="http://www.w3.org/2000/svg"
   xmlns:svg="http://www.w3.org/2000/svg">
  <defs
     id="defs3" />
  <sodipodi:namedview
     id="namedview3"
     pagecolor="#ffffff"
     bordercolor="#000000"
     borderopacity="0.25"
     inkscape:showpageshadow="2"
     inkscape:pageopacity="0.0"
     inkscape:pagecheckerboard="0"
     inkscape:deskcolor="#d1d1d1" />
  <g
     transform="matrix(1.25,0,0,-1.25,-259.6839,529.89328)"
     id="g3">
    <g
       id="g2">
      <path
         d="m 266.16,373.45 h -46.136 -0.4338 v 0.43381 6.1994 h -3.956 v -10.588 h 50.526 v 3.9552 z"
         fill="#cc0000"
         id="path1" />
      <path
         d="m 10.834,1.1191 v 13.236 h 4.945 V 6.6056 6.0646 h 0.543 57.098 0.543 v 0.541 7.7495 h 4.945 V 1.1191 l -68.074,10e-5 z m 159.95,17.68 v 10.64 c 0,0.624 0.12,1.099 0.35,1.422 0.23,0.324 0.62,0.485 1.16,0.485 0.2,0 0.36,-0.011 0.49,-0.034 0.12,-0.023 0.23,-0.059 0.33,-0.105 l -0.19,-1.074 c -0.09,0.023 -0.15,0.035 -0.19,0.035 h -0.13 c -0.1,0 -0.19,-0.046 -0.27,-0.139 -0.09,-0.092 -0.12,-0.255 -0.12,-0.486 v -10.744 z m 4.85,0 v 10.64 c 0,0.624 0.12,1.099 0.35,1.422 0.23,0.324 0.62,0.485 1.16,0.485 0.2,0 0.36,-0.011 0.49,-0.034 0.13,-0.023 0.24,-0.059 0.33,-0.105 l -0.19,-1.074 c -0.08,0.023 -0.14,0.035 -0.18,0.035 h -0.13 c -0.11,0 -0.2,-0.046 -0.28,-0.139 -0.08,-0.092 -0.12,-0.255 -0.12,-0.486 v -10.744 z m -162.85,0.217 c -9.6602,0 -11.443,6.071 -11.443,9.515 -10e-5,6.807 4.6424,7.925 9.453,9.088 l 3.193,0.776 c 3.151,0.775 5.389,1.42 5.389,3.832 0,3.274 -3.275,4.007 -6.219,4.007 -5.431,0 -6.2616,-3.274 -6.3024,-4.996 H 0.8839 c -4e-5,3.832 1.8657,10.334 12.728,10.334 2.611,0 11.735,-0.817 11.735,-10.121 0,-5.554 -3.732,-7.275 -7.795,-8.308 l -7.256,-1.854 c -1.2435,-0.3 -3.1504,-0.819 -3.1504,-3.23 0,-2.799 2.8178,-3.704 5.1814,-3.704 5.432,0 5.929,3.273 6.096,4.651 h 5.973 c -0.043,-3.79 -2.49,-9.99 -11.612,-9.99 z m 200.21,0.129 c -0.28,0 -0.52,0.084 -0.71,0.251 -0.19,0.168 -0.28,0.39 -0.28,0.666 0,0.266 0.09,0.487 0.28,0.661 0.19,0.172 0.43,0.259 0.71,0.259 0.27,0 0.51,-0.087 0.7,-0.259 0.19,-0.174 0.28,-0.395 0.28,-0.661 0,-0.276 -0.09,-0.498 -0.28,-0.666 -0.19,-0.167 -0.43,-0.251 -0.7,-0.251 z m -89.56,0.416 c -0.52,0 -0.99,0.074 -1.43,0.224 -0.43,0.15 -0.81,0.362 -1.12,0.633 -0.32,0.272 -0.57,0.593 -0.75,0.963 -0.18,0.369 -0.27,0.768 -0.27,1.195 0,0.417 0.07,0.782 0.21,1.1 0.14,0.318 0.32,0.593 0.54,0.824 0.22,0.231 0.47,0.429 0.74,0.59 0.28,0.162 0.55,0.3 0.82,0.416 l 1.63,0.711 c 0.26,0.127 0.51,0.248 0.74,0.363 0.23,0.116 0.43,0.246 0.6,0.391 0.17,0.144 0.3,0.317 0.4,0.519 0.1,0.202 0.15,0.448 0.15,0.737 0,0.554 -0.21,1.003 -0.63,1.343 -0.41,0.341 -1,0.51 -1.75,0.51 -0.59,0 -1.16,-0.128 -1.71,-0.389 -0.55,-0.259 -1.02,-0.603 -1.43,-1.031 l -0.86,1.006 c 0.49,0.52 1.08,0.93 1.77,1.23 0.68,0.3 1.42,0.45 2.21,0.45 0.6,0 1.14,-0.083 1.62,-0.25 0.47,-0.168 0.87,-0.399 1.21,-0.694 0.33,-0.294 0.59,-0.638 0.77,-1.031 0.18,-0.392 0.27,-0.815 0.27,-1.266 0,-0.416 -0.06,-0.783 -0.18,-1.101 -0.12,-0.317 -0.29,-0.594 -0.5,-0.832 -0.21,-0.236 -0.45,-0.444 -0.74,-0.623 -0.29,-0.179 -0.6,-0.338 -0.92,-0.477 l -1.61,-0.693 c -0.23,-0.092 -0.46,-0.193 -0.68,-0.303 -0.22,-0.109 -0.42,-0.238 -0.61,-0.383 -0.18,-0.143 -0.33,-0.311 -0.44,-0.502 -0.11,-0.19 -0.16,-0.425 -0.16,-0.703 0,-0.519 0.19,-0.925 0.58,-1.22 0.39,-0.295 0.9,-0.442 1.53,-0.442 0.53,0 1.01,0.095 1.43,0.285 0.42,0.19 0.81,0.455 1.16,0.789 l 0.77,-0.935 c -0.4,-0.416 -0.89,-0.754 -1.47,-1.014 -0.58,-0.26 -1.21,-0.39 -1.89,-0.39 z m 17.33,0 c -0.52,0 -0.99,0.074 -1.43,0.224 -0.43,0.15 -0.8,0.362 -1.12,0.633 -0.32,0.272 -0.57,0.593 -0.75,0.963 -0.18,0.369 -0.27,0.768 -0.27,1.195 0,0.417 0.07,0.782 0.21,1.1 0.14,0.318 0.32,0.593 0.54,0.824 0.22,0.231 0.47,0.429 0.75,0.59 0.27,0.162 0.54,0.3 0.81,0.416 l 1.63,0.711 c 0.26,0.127 0.51,0.248 0.75,0.363 0.23,0.116 0.42,0.246 0.59,0.391 0.17,0.144 0.3,0.317 0.4,0.519 0.1,0.202 0.15,0.448 0.15,0.737 0,0.554 -0.21,1.003 -0.63,1.343 -0.41,0.341 -1,0.51 -1.75,0.51 -0.59,0 -1.16,-0.128 -1.7,-0.389 -0.55,-0.259 -1.03,-0.603 -1.43,-1.031 l -0.87,1.006 c 0.5,0.52 1.08,0.93 1.77,1.23 0.68,0.3 1.42,0.45 2.21,0.45 0.61,0 1.14,-0.083 1.62,-0.25 0.47,-0.168 0.88,-0.399 1.21,-0.694 0.34,-0.294 0.59,-0.638 0.77,-1.031 0.18,-0.392 0.27,-0.815 0.27,-1.266 0,-0.416 -0.06,-0.783 -0.18,-1.101 -0.12,-0.317 -0.29,-0.594 -0.5,-0.832 -0.2,-0.236 -0.45,-0.444 -0.74,-0.623 -0.29,-0.179 -0.6,-0.338 -0.92,-0.477 l -1.61,-0.693 c -0.23,-0.092 -0.46,-0.193 -0.68,-0.303 -0.22,-0.109 -0.42,-0.238 -0.6,-0.383 -0.19,-0.143 -0.34,-0.311 -0.45,-0.502 -0.11,-0.19 -0.16,-0.425 -0.16,-0.703 0,-0.519 0.19,-0.925 0.58,-1.22 0.39,-0.295 0.9,-0.442 1.53,-0.442 0.54,0 1.01,0.095 1.44,0.285 0.42,0.19 0.8,0.455 1.15,0.789 l 0.78,-0.935 c -0.41,-0.416 -0.9,-0.754 -1.48,-1.014 -0.57,-0.26 -1.2,-0.39 -1.89,-0.39 z m -34.33,0.209 v 6.671 c 0,0.913 0.1,1.681 0.31,2.305 0.21,0.624 0.5,1.13 0.86,1.518 0.36,0.387 0.8,0.664 1.3,0.832 0.5,0.166 1.04,0.25 1.62,0.25 0.58,0 1.12,-0.084 1.61,-0.25 0.5,-0.168 0.93,-0.445 1.29,-0.832 0.37,-0.388 0.65,-0.894 0.86,-1.518 0.21,-0.624 0.31,-1.392 0.31,-2.305 v -6.671 h -1.38 v 6.707 c 0,0.681 -0.07,1.252 -0.21,1.714 -0.14,0.462 -0.33,0.833 -0.57,1.11 -0.24,0.277 -0.53,0.476 -0.85,0.597 -0.33,0.122 -0.68,0.182 -1.06,0.182 -0.37,0 -0.72,-0.06 -1.04,-0.182 -0.32,-0.121 -0.6,-0.32 -0.84,-0.597 -0.24,-0.277 -0.43,-0.648 -0.56,-1.11 -0.14,-0.462 -0.21,-1.033 -0.21,-1.714 v -6.707 z m 78.13,0 v 11.369 h 3.62 c 0.64,0 1.22,-0.07 1.76,-0.209 0.53,-0.139 0.98,-0.345 1.36,-0.623 0.39,-0.278 0.68,-0.625 0.89,-1.041 0.21,-0.416 0.31,-0.901 0.31,-1.455 0,-0.787 -0.23,-1.405 -0.69,-1.856 -0.46,-0.45 -1.11,-0.738 -1.94,-0.865 v -0.07 c 0.66,-0.173 1.16,-0.487 1.49,-0.944 0.32,-0.456 0.48,-0.969 0.48,-1.535 0,-0.496 -0.09,-0.92 -0.29,-1.273 -0.19,-0.353 -0.45,-0.638 -0.79,-0.858 -0.34,-0.219 -0.75,-0.382 -1.23,-0.486 -0.48,-0.104 -1.01,-0.154 -1.59,-0.154 z m -110.61,0.054 -9.822,30.942 h 6.201 l 6.018,-20.315 6.117,20.315 h 6.201 L 78.86,19.8241 Z m -40.742,0.01 v 30.922 h 13.092 c 6.33,0 8.011,-1.078 9.777,-2.799 1.636,-1.594 2.67,-3.921 2.67,-6.375 0,-3.06 -0.992,-6.073 -4.781,-7.494 1.292,-0.645 3.789,-1.896 3.789,-6.33 0,-3.187 -1.937,-7.924 -9.518,-7.924 z m 152.79,1.078 h 1.75 c 0.89,0 1.56,0.136 2,0.406 0.45,0.272 0.67,0.721 0.67,1.344 0,0.636 -0.21,1.122 -0.63,1.457 -0.42,0.336 -1.13,0.502 -2.11,0.502 h -1.68 z m -35.01,1.594 c -0.51,0 -0.98,0.137 -1.41,0.408 -0.44,0.272 -0.84,0.609 -1.21,1.014 h -0.05 l -0.12,-1.213 h -1.18 v 8.424 h 1.42 v -6.102 c 0.78,-0.867 1.48,-1.299 2.12,-1.299 0.54,0 0.94,0.176 1.19,0.528 0.26,0.352 0.38,0.927 0.38,1.724 v 5.149 h 1.42 v -6.102 c 0.78,-0.867 1.48,-1.299 2.12,-1.299 0.53,0 0.92,0.176 1.18,0.528 0.25,0.352 0.38,0.927 0.38,1.724 v 5.149 h 1.42 v -5.34 c 0,-1.086 -0.21,-1.906 -0.63,-2.461 -0.42,-0.554 -1.07,-0.832 -1.93,-0.832 -0.52,0 -1.01,0.149 -1.45,0.443 -0.45,0.295 -0.89,0.685 -1.33,1.17 -0.17,-0.508 -0.44,-0.904 -0.8,-1.187 -0.37,-0.283 -0.87,-0.426 -1.52,-0.426 z m 13.74,0 c -0.68,0 -1.3,0.119 -1.87,0.355 -0.56,0.238 -1.04,0.484 -1.44,0.739 l 0.58,0.986 c 0.33,-0.231 0.71,-0.438 1.13,-0.623 0.42,-0.185 0.88,-0.277 1.38,-0.277 0.35,0 0.63,0.06 0.85,0.181 0.22,0.122 0.39,0.281 0.53,0.477 0.13,0.196 0.22,0.422 0.27,0.676 0.06,0.254 0.08,0.513 0.08,0.779 -1.8,0.197 -3.11,0.542 -3.94,1.033 -0.83,0.491 -1.24,1.198 -1.24,2.123 0,0.763 0.23,1.352 0.7,1.768 0.47,0.416 1.06,0.623 1.78,0.623 0.52,0 1.01,-0.12 1.48,-0.356 0.47,-0.237 0.9,-0.522 1.31,-0.857 h 0.03 l 0.12,1.006 h 1.18 v -5.166 c 0,-1.052 -0.23,-1.892 -0.69,-2.522 -0.46,-0.63 -1.21,-0.945 -2.24,-0.945 z m 42.21,0 c -0.45,0 -0.86,0.062 -1.22,0.183 -0.35,0.122 -0.66,0.289 -0.91,0.502 -0.24,0.215 -0.44,0.467 -0.57,0.762 -0.13,0.295 -0.2,0.61 -0.2,0.945 0,0.359 0.08,0.665 0.23,0.918 0.15,0.255 0.34,0.478 0.58,0.668 0.24,0.191 0.5,0.354 0.8,0.487 0.3,0.132 0.61,0.251 0.91,0.355 0.23,0.092 0.46,0.183 0.69,0.276 0.23,0.092 0.44,0.199 0.62,0.32 0.17,0.121 0.32,0.264 0.44,0.426 0.11,0.162 0.17,0.352 0.17,0.572 0,0.37 -0.14,0.681 -0.42,0.935 -0.27,0.255 -0.69,0.381 -1.24,0.381 -0.51,0 -0.96,-0.092 -1.35,-0.277 -0.38,-0.184 -0.76,-0.428 -1.13,-0.729 l -0.71,0.956 c 0.4,0.335 0.87,0.612 1.42,0.832 0.54,0.219 1.11,0.328 1.71,0.328 0.5,0 0.94,-0.067 1.33,-0.2 0.39,-0.132 0.71,-0.314 0.97,-0.544 0.26,-0.232 0.46,-0.497 0.59,-0.797 0.13,-0.301 0.2,-0.625 0.2,-0.971 0,-0.393 -0.08,-0.728 -0.23,-1.006 -0.16,-0.277 -0.36,-0.512 -0.6,-0.703 -0.25,-0.19 -0.52,-0.349 -0.83,-0.477 -0.3,-0.126 -0.61,-0.248 -0.91,-0.363 -0.24,-0.093 -0.47,-0.181 -0.7,-0.267 -0.22,-0.087 -0.42,-0.185 -0.6,-0.295 -0.17,-0.11 -0.31,-0.238 -0.41,-0.383 -0.11,-0.144 -0.16,-0.314 -0.16,-0.51 0,-0.324 0.13,-0.607 0.38,-0.85 0.24,-0.242 0.63,-0.365 1.17,-0.365 0.37,0 0.7,0.07 1.02,0.209 0.31,0.139 0.61,0.318 0.9,0.537 l 0.67,-0.9 c -0.32,-0.266 -0.7,-0.491 -1.15,-0.676 -0.44,-0.185 -0.93,-0.279 -1.46,-0.279 z m 14.19,0 c -0.59,0 -1.1,0.137 -1.55,0.408 -0.44,0.272 -0.87,0.609 -1.27,1.014 h -0.05 l -0.13,-1.213 h -1.17 v 8.424 h 1.42 v -6.102 c 0.42,-0.427 0.8,-0.75 1.14,-0.971 0.33,-0.218 0.72,-0.328 1.16,-0.328 0.56,0 0.96,0.176 1.21,0.528 0.26,0.352 0.39,0.927 0.39,1.724 v 5.149 h 1.42 v -5.34 c 0,-1.086 -0.21,-1.906 -0.62,-2.461 -0.41,-0.554 -1.06,-0.832 -1.95,-0.832 z m 8.89,0 c -0.48,0 -0.95,0.102 -1.4,0.305 -0.45,0.201 -0.85,0.493 -1.21,0.875 -0.35,0.38 -0.63,0.847 -0.84,1.396 -0.22,0.549 -0.32,1.168 -0.32,1.861 0,0.694 0.1,1.313 0.31,1.856 0.21,0.543 0.49,1.001 0.85,1.377 0.37,0.375 0.8,0.665 1.29,0.867 0.49,0.201 1.02,0.303 1.58,0.303 0.58,0 1.1,-0.087 1.55,-0.26 0.45,-0.174 0.86,-0.375 1.23,-0.606 l -0.51,-0.937 c -0.31,0.197 -0.64,0.355 -0.98,0.477 -0.34,0.121 -0.71,0.181 -1.11,0.181 -0.81,0 -1.47,-0.265 -1.97,-0.797 -0.5,-0.531 -0.78,-1.253 -0.84,-2.166 h 5.68 c 0.04,-0.208 0.06,-0.468 0.06,-0.779 0,-0.601 -0.08,-1.144 -0.23,-1.629 -0.15,-0.486 -0.37,-0.901 -0.65,-1.248 -0.28,-0.346 -0.64,-0.614 -1.06,-0.799 -0.42,-0.184 -0.89,-0.277 -1.43,-0.277 z m 8.25,0 c -0.45,0 -0.85,0.062 -1.21,0.183 -0.36,0.122 -0.66,0.289 -0.91,0.502 -0.25,0.215 -0.44,0.467 -0.57,0.762 -0.13,0.295 -0.2,0.61 -0.2,0.945 0,0.359 0.07,0.665 0.22,0.918 0.15,0.255 0.35,0.478 0.58,0.668 0.24,0.191 0.51,0.354 0.81,0.487 0.3,0.132 0.6,0.251 0.9,0.355 0.23,0.092 0.46,0.183 0.7,0.276 0.23,0.092 0.43,0.199 0.61,0.32 0.18,0.121 0.33,0.264 0.44,0.426 0.12,0.162 0.18,0.352 0.18,0.572 0,0.37 -0.14,0.681 -0.42,0.935 -0.28,0.255 -0.69,0.381 -1.25,0.381 -0.51,0 -0.95,-0.092 -1.34,-0.277 -0.39,-0.184 -0.77,-0.428 -1.14,-0.729 l -0.71,0.956 c 0.41,0.335 0.88,0.612 1.42,0.832 0.55,0.219 1.12,0.328 1.72,0.328 0.5,0 0.94,-0.067 1.33,-0.2 0.38,-0.132 0.71,-0.314 0.97,-0.544 0.26,-0.232 0.45,-0.497 0.59,-0.797 0.13,-0.301 0.2,-0.625 0.2,-0.971 0,-0.393 -0.08,-0.728 -0.24,-1.006 -0.15,-0.277 -0.35,-0.512 -0.6,-0.703 -0.24,-0.19 -0.51,-0.349 -0.82,-0.477 -0.31,-0.126 -0.61,-0.248 -0.91,-0.363 -0.24,-0.093 -0.48,-0.181 -0.7,-0.267 -0.23,-0.087 -0.43,-0.185 -0.6,-0.295 -0.17,-0.11 -0.31,-0.238 -0.42,-0.383 -0.1,-0.144 -0.15,-0.314 -0.15,-0.51 0,-0.324 0.12,-0.607 0.37,-0.85 0.25,-0.242 0.64,-0.365 1.17,-0.365 0.37,0 0.71,0.07 1.02,0.209 0.31,0.139 0.62,0.318 0.9,0.537 l 0.68,-0.9 c -0.32,-0.266 -0.71,-0.491 -1.15,-0.676 -0.45,-0.185 -0.93,-0.279 -1.47,-0.279 z m 7.7,0 c -0.45,0 -0.86,0.062 -1.21,0.183 -0.36,0.122 -0.67,0.289 -0.91,0.502 -0.25,0.215 -0.44,0.467 -0.58,0.762 -0.13,0.295 -0.2,0.61 -0.2,0.945 0,0.359 0.08,0.665 0.23,0.918 0.15,0.255 0.34,0.478 0.58,0.668 0.24,0.191 0.5,0.354 0.81,0.487 0.3,0.132 0.6,0.251 0.9,0.355 0.23,0.092 0.46,0.183 0.69,0.276 0.23,0.092 0.44,0.199 0.62,0.32 0.18,0.121 0.32,0.264 0.44,0.426 0.11,0.162 0.17,0.352 0.17,0.572 0,0.37 -0.14,0.681 -0.41,0.935 -0.28,0.255 -0.7,0.381 -1.25,0.381 -0.51,0 -0.96,-0.092 -1.35,-0.277 -0.38,-0.184 -0.76,-0.428 -1.13,-0.729 l -0.71,0.956 c 0.4,0.335 0.88,0.612 1.42,0.832 0.54,0.219 1.11,0.328 1.71,0.328 0.5,0 0.94,-0.067 1.33,-0.2 0.39,-0.132 0.71,-0.314 0.97,-0.544 0.26,-0.232 0.46,-0.497 0.59,-0.797 0.13,-0.301 0.2,-0.625 0.2,-0.971 0,-0.393 -0.08,-0.728 -0.23,-1.006 -0.16,-0.277 -0.36,-0.512 -0.6,-0.703 -0.24,-0.19 -0.52,-0.349 -0.83,-0.477 -0.3,-0.126 -0.61,-0.248 -0.91,-0.363 -0.24,-0.093 -0.47,-0.181 -0.7,-0.267 -0.22,-0.087 -0.42,-0.185 -0.59,-0.295 -0.18,-0.11 -0.32,-0.238 -0.42,-0.383 -0.1,-0.144 -0.16,-0.314 -0.16,-0.51 0,-0.324 0.13,-0.607 0.38,-0.85 0.24,-0.242 0.64,-0.365 1.17,-0.365 0.37,0 0.71,0.07 1.02,0.209 0.31,0.139 0.61,0.318 0.9,0.537 l 0.68,-0.9 c -0.33,-0.266 -0.71,-0.491 -1.16,-0.676 -0.44,-0.185 -0.93,-0.279 -1.46,-0.279 z m -51.39,0.209 v 5.338 c 0,1.086 0.21,1.906 0.62,2.461 0.41,0.554 1.06,0.832 1.96,0.832 0.59,0 1.1,-0.139 1.54,-0.416 0.43,-0.277 0.84,-0.648 1.24,-1.11 h 0.05 l 0.12,1.319 h 1.18 v -8.424 h -1.42 v 5.98 c -0.41,0.497 -0.78,0.857 -1.11,1.082 -0.34,0.226 -0.73,0.338 -1.16,0.338 -0.56,0 -0.96,-0.176 -1.21,-0.529 -0.25,-0.352 -0.37,-0.925 -0.37,-1.723 v -5.148 z m 17.68,0 v 8.424 h 1.42 v -8.424 z m 17.8,0.918 c 0.66,0 1.17,0.229 1.53,0.685 0.37,0.457 0.55,1.118 0.55,1.985 h -4.51 c 0.05,-0.428 0.14,-0.806 0.29,-1.135 0.14,-0.33 0.32,-0.607 0.54,-0.832 0.22,-0.226 0.47,-0.4 0.74,-0.522 0.27,-0.121 0.56,-0.181 0.86,-0.181 z m -190.65,1.539 h 7.408 c 2.929,0 4.739,0.776 4.739,3.318 0,2.456 -2.026,3.446 -4.567,3.446 h -7.58 z m 146.59,0.525 h 1.98 c 1,0 1.77,0.164 2.3,0.492 0.53,0.33 0.8,0.847 0.8,1.551 0,0.775 -0.27,1.345 -0.82,1.709 -0.54,0.364 -1.3,0.545 -2.28,0.545 h -1.98 z m -19.76,1.039 v 2.34 c -0.4,0.371 -0.79,0.649 -1.15,0.84 -0.36,0.191 -0.75,0.285 -1.15,0.285 -0.42,0 -0.77,-0.103 -1.05,-0.31 -0.28,-0.208 -0.43,-0.554 -0.43,-1.039 0,-0.266 0.07,-0.513 0.19,-0.739 0.13,-0.225 0.34,-0.424 0.64,-0.597 0.29,-0.173 0.68,-0.324 1.17,-0.452 0.48,-0.126 1.08,-0.235 1.78,-0.328 z m -49.55,2.426 c -0.29,0 -0.53,0.103 -0.74,0.305 -0.2,0.202 -0.3,0.469 -0.3,0.804 0,0.313 0.1,0.57 0.3,0.772 0.21,0.201 0.45,0.303 0.74,0.303 0.28,0 0.52,-0.102 0.72,-0.303 0.2,-0.202 0.3,-0.459 0.3,-0.772 0,-0.335 -0.1,-0.602 -0.3,-0.804 -0.2,-0.202 -0.44,-0.305 -0.72,-0.305 z m 13.05,0 c -0.29,0 -0.53,0.103 -0.73,0.305 -0.21,0.202 -0.31,0.469 -0.31,0.804 0,0.313 0.1,0.57 0.31,0.772 0.2,0.201 0.44,0.303 0.73,0.303 0.28,0 0.52,-0.102 0.72,-0.303 0.2,-0.202 0.3,-0.459 0.3,-0.772 0,-0.335 -0.1,-0.602 -0.3,-0.804 -0.2,-0.202 -0.44,-0.305 -0.72,-0.305 z m -90.328,7.983 h 8.225 c 2.326,0 4.654,1.037 4.654,3.748 0,3.144 -1.81,4.521 -4.955,4.521 h -7.924 z m 82.128,1.152 v 3.24 l 0.07,1.44 c -0.37,-0.301 -0.73,-0.538 -1.09,-0.711 -0.36,-0.174 -0.78,-0.26 -1.26,-0.26 -0.49,0 -0.95,0.104 -1.39,0.312 -0.44,0.209 -0.83,0.502 -1.16,0.883 -0.34,0.381 -0.61,0.848 -0.81,1.397 -0.2,0.548 -0.3,1.163 -0.3,1.845 0,1.41 0.31,2.496 0.94,3.258 0.63,0.763 1.48,1.145 2.54,1.145 0.5,0 0.96,-0.12 1.4,-0.356 0.43,-0.236 0.82,-0.518 1.15,-0.842 h 0.05 l 0.12,0.989 h 1.18 v -12.34 z m 19.9,0.346 c -0.28,0 -0.51,0.084 -0.7,0.252 -0.19,0.167 -0.29,0.391 -0.29,0.667 0,0.267 0.1,0.485 0.29,0.659 0.19,0.172 0.42,0.259 0.7,0.259 0.28,0 0.51,-0.087 0.7,-0.259 0.19,-0.174 0.29,-0.392 0.29,-0.659 0,-0.276 -0.1,-0.5 -0.29,-0.667 -0.19,-0.168 -0.42,-0.252 -0.7,-0.252 z m 14.61,0 c -0.28,0 -0.51,0.084 -0.7,0.252 -0.19,0.167 -0.29,0.391 -0.29,0.667 0,0.267 0.1,0.485 0.29,0.659 0.19,0.172 0.42,0.259 0.7,0.259 0.28,0 0.51,-0.087 0.7,-0.259 0.19,-0.174 0.29,-0.392 0.29,-0.659 0,-0.276 -0.1,-0.5 -0.29,-0.667 -0.19,-0.168 -0.42,-0.252 -0.7,-0.252 z m 40.3,0 c -0.28,0 -0.51,0.084 -0.7,0.252 -0.19,0.167 -0.29,0.391 -0.29,0.667 0,0.267 0.1,0.485 0.29,0.659 0.19,0.172 0.42,0.259 0.7,0.259 0.28,0 0.51,-0.087 0.7,-0.259 0.19,-0.174 0.29,-0.392 0.29,-0.659 0,-0.276 -0.1,-0.5 -0.29,-0.667 -0.19,-0.168 -0.42,-0.252 -0.7,-0.252 z m -87.53,0.625 -3.85,11.369 h 1.48 l 1.09,-3.467 h 4.14 l 1.08,3.467 h 1.54 l -3.85,-11.369 z m 59.38,0.589 -0.17,2.356 -1.32,0.088 v 1.074 h 1.25 v 4.662 c 0,0.416 0.04,0.798 0.12,1.145 0.08,0.346 0.22,0.641 0.41,0.884 0.19,0.242 0.44,0.432 0.74,0.571 0.31,0.138 0.69,0.209 1.14,0.209 0.26,0 0.53,-0.033 0.8,-0.096 0.27,-0.063 0.53,-0.136 0.76,-0.217 l -0.28,-1.074 c -0.14,0.058 -0.29,0.11 -0.47,0.156 -0.17,0.047 -0.33,0.069 -0.48,0.069 -0.49,0 -0.83,-0.141 -1.02,-0.424 -0.19,-0.283 -0.28,-0.685 -0.28,-1.205 v -4.68 h 2.27 v -1.162 h -2.27 v -2.356 z m 21.61,0 -0.17,2.356 -1.32,0.088 v 1.074 h 1.25 v 4.662 c 0,0.416 0.04,0.798 0.12,1.145 0.08,0.346 0.22,0.641 0.41,0.884 0.19,0.242 0.44,0.432 0.74,0.571 0.31,0.138 0.69,0.209 1.14,0.209 0.27,0 0.53,-0.033 0.81,-0.096 0.27,-0.063 0.52,-0.136 0.75,-0.217 l -0.28,-1.074 c -0.14,0.058 -0.29,0.11 -0.47,0.156 -0.17,0.047 -0.33,0.069 -0.48,0.069 -0.49,0 -0.82,-0.141 -1.02,-0.424 -0.19,-0.283 -0.28,-0.685 -0.28,-1.205 v -4.68 h 2.27 v -1.162 h -2.27 v -2.356 z m -80.24,0.588 h 0.07 c 0.18,0.659 0.37,1.305 0.55,1.934 0.19,0.63 0.38,1.263 0.59,1.898 l 0.54,1.733 h -3.42 l 0.54,-1.733 c 0.21,-0.635 0.4,-1.268 0.59,-1.898 0.18,-0.629 0.36,-1.275 0.54,-1.934 z m 20.31,1.561 c -0.51,0 -0.98,0.135 -1.41,0.406 -0.44,0.272 -0.84,0.611 -1.21,1.016 h -0.05 l -0.12,-1.215 h -1.18 v 8.424 h 1.42 v -6.102 c 0.78,-0.866 1.48,-1.299 2.12,-1.299 0.54,0 0.94,0.178 1.19,0.53 0.26,0.352 0.38,0.927 0.38,1.724 v 5.147 h 1.43 v -6.102 c 0.77,-0.866 1.47,-1.299 2.11,-1.299 0.53,0 0.92,0.178 1.18,0.53 0.25,0.352 0.38,0.927 0.38,1.724 v 5.147 h 1.42 v -5.338 c 0,-1.085 -0.21,-1.906 -0.63,-2.461 -0.42,-0.555 -1.07,-0.832 -1.94,-0.832 -0.51,0 -1,0.147 -1.44,0.441 -0.45,0.295 -0.89,0.685 -1.33,1.17 -0.17,-0.507 -0.44,-0.904 -0.8,-1.187 -0.37,-0.283 -0.87,-0.424 -1.52,-0.424 z m 19.71,0 c -0.59,0 -1.11,0.135 -1.55,0.406 -0.45,0.272 -0.87,0.611 -1.28,1.016 h -0.05 l -0.12,-1.215 h -1.18 v 8.424 h 1.42 v -6.102 c 0.43,-0.427 0.81,-0.75 1.14,-0.971 0.34,-0.218 0.73,-0.328 1.17,-0.328 0.55,0 0.96,0.178 1.21,0.53 0.25,0.352 0.38,0.927 0.38,1.724 v 5.147 h 1.42 v -5.338 c 0,-1.085 -0.2,-1.906 -0.61,-2.461 -0.42,-0.555 -1.06,-0.832 -1.95,-0.832 z m 12.8,0 c -0.45,0 -0.85,0.06 -1.21,0.182 -0.36,0.121 -0.66,0.288 -0.91,0.501 -0.25,0.215 -0.44,0.469 -0.57,0.764 -0.13,0.295 -0.2,0.61 -0.2,0.945 0,0.359 0.07,0.665 0.22,0.918 0.15,0.256 0.35,0.477 0.58,0.668 0.24,0.191 0.51,0.352 0.81,0.485 0.3,0.133 0.6,0.251 0.9,0.355 0.23,0.092 0.47,0.186 0.7,0.278 0.23,0.092 0.43,0.199 0.61,0.32 0.18,0.121 0.33,0.262 0.44,0.424 0.12,0.162 0.18,0.354 0.18,0.574 0,0.369 -0.14,0.681 -0.42,0.935 -0.28,0.255 -0.69,0.381 -1.25,0.381 -0.51,0 -0.95,-0.091 -1.34,-0.277 -0.39,-0.184 -0.77,-0.428 -1.14,-0.729 l -0.71,0.954 c 0.41,0.335 0.88,0.612 1.43,0.832 0.54,0.219 1.11,0.33 1.71,0.33 0.5,0 0.94,-0.068 1.33,-0.201 0.38,-0.132 0.71,-0.315 0.97,-0.545 0.26,-0.232 0.45,-0.497 0.59,-0.797 0.13,-0.301 0.2,-0.625 0.2,-0.971 0,-0.393 -0.08,-0.728 -0.24,-1.006 -0.15,-0.277 -0.35,-0.51 -0.6,-0.701 -0.24,-0.19 -0.51,-0.349 -0.82,-0.477 -0.31,-0.126 -0.61,-0.247 -0.91,-0.363 -0.24,-0.092 -0.48,-0.183 -0.7,-0.269 -0.23,-0.087 -0.43,-0.185 -0.6,-0.295 -0.17,-0.11 -0.31,-0.236 -0.41,-0.381 -0.11,-0.144 -0.16,-0.316 -0.16,-0.512 0,-0.323 0.12,-0.607 0.37,-0.849 0.25,-0.243 0.64,-0.364 1.17,-0.364 0.37,0 0.71,0.07 1.02,0.209 0.32,0.139 0.62,0.316 0.91,0.535 l 0.67,-0.9 c -0.32,-0.265 -0.71,-0.491 -1.15,-0.676 -0.45,-0.185 -0.93,-0.277 -1.47,-0.277 z m 15.36,0 c -0.49,0 -0.93,0.156 -1.34,0.469 -0.41,0.311 -0.76,0.733 -1.05,1.263 h -0.05 l -0.12,-1.525 h -1.18 v 8.424 h 1.42 v -5.408 c 0.29,-0.717 0.62,-1.22 1.01,-1.508 0.39,-0.288 0.76,-0.432 1.12,-0.432 0.17,0 0.32,0.01 0.43,0.033 0.12,0.024 0.25,0.059 0.39,0.106 l 0.27,-1.248 c -0.26,-0.116 -0.56,-0.174 -0.9,-0.174 z m 5.53,0 c -0.68,0 -1.31,0.119 -1.87,0.355 -0.57,0.238 -1.05,0.483 -1.44,0.737 l 0.57,0.988 c 0.34,-0.231 0.71,-0.44 1.14,-0.625 0.42,-0.185 0.88,-0.277 1.37,-0.277 0.35,0 0.63,0.06 0.85,0.181 0.22,0.122 0.4,0.283 0.53,0.479 0.13,0.196 0.23,0.422 0.28,0.676 0.05,0.255 0.08,0.513 0.08,0.779 -1.81,0.197 -3.12,0.54 -3.95,1.031 -0.82,0.491 -1.23,1.198 -1.23,2.123 0,0.763 0.23,1.352 0.7,1.768 0.46,0.416 1.06,0.625 1.77,0.625 0.52,0 1.02,-0.12 1.49,-0.356 0.46,-0.236 0.9,-0.524 1.3,-0.859 h 0.04 l 0.12,1.006 h 1.18 v -5.164 c 0,-1.052 -0.23,-1.892 -0.69,-2.522 -0.47,-0.63 -1.21,-0.945 -2.24,-0.945 z m 20.31,0 c -0.52,0 -1.01,0.099 -1.48,0.295 -0.47,0.197 -0.88,0.485 -1.24,0.867 -0.36,0.382 -0.64,0.845 -0.86,1.394 -0.21,0.55 -0.32,1.177 -0.32,1.881 0,0.693 0.11,1.315 0.32,1.864 0.22,0.549 0.5,1.011 0.86,1.386 0.36,0.376 0.77,0.662 1.24,0.858 0.47,0.196 0.96,0.295 1.48,0.295 0.52,0 1.02,-0.099 1.48,-0.295 0.47,-0.196 0.89,-0.482 1.24,-0.858 0.36,-0.375 0.65,-0.837 0.86,-1.386 0.22,-0.549 0.32,-1.171 0.32,-1.864 0,-0.704 -0.1,-1.331 -0.32,-1.881 -0.21,-0.549 -0.5,-1.012 -0.86,-1.394 -0.35,-0.382 -0.77,-0.67 -1.24,-0.867 -0.46,-0.196 -0.96,-0.295 -1.48,-0.295 z m 10.38,0 c -0.58,0 -1.1,0.135 -1.55,0.406 -0.44,0.272 -0.87,0.611 -1.27,1.016 h -0.05 l -0.13,-1.215 h -1.17 v 8.424 h 1.42 v -6.102 c 0.43,-0.427 0.81,-0.75 1.14,-0.971 0.34,-0.218 0.72,-0.328 1.16,-0.328 0.56,0 0.96,0.178 1.22,0.53 0.25,0.352 0.38,0.927 0.38,1.724 v 5.147 h 1.42 v -5.338 c 0,-1.085 -0.21,-1.906 -0.62,-2.461 -0.41,-0.555 -1.06,-0.832 -1.95,-0.832 z m -73.26,0.207 v 8.424 h 1.42 v -8.424 z m 14.61,0 v 8.424 h 1.42 v -8.424 z m 40.3,0 v 8.424 h 1.42 v -8.424 z m 7.97,0.971 c 0.36,0 0.69,0.078 0.99,0.234 0.3,0.156 0.56,0.379 0.77,0.668 0.21,0.289 0.38,0.633 0.5,1.031 0.11,0.399 0.17,0.841 0.17,1.326 0,0.485 -0.06,0.925 -0.17,1.317 -0.12,0.393 -0.29,0.73 -0.5,1.013 -0.21,0.283 -0.47,0.504 -0.77,0.661 -0.3,0.156 -0.63,0.232 -0.99,0.232 -0.36,0 -0.68,-0.076 -0.98,-0.232 -0.31,-0.157 -0.56,-0.378 -0.78,-0.661 -0.21,-0.283 -0.37,-0.62 -0.49,-1.013 -0.12,-0.392 -0.17,-0.832 -0.17,-1.317 0,-0.485 0.05,-0.927 0.17,-1.326 0.12,-0.398 0.28,-0.742 0.49,-1.031 0.22,-0.289 0.47,-0.512 0.78,-0.668 0.3,-0.156 0.62,-0.234 0.98,-0.234 z m -84.09,0.017 c 0.35,0 0.68,0.067 1.01,0.199 0.33,0.133 0.67,0.362 1.03,0.686 v 4.402 c -0.34,0.393 -0.69,0.685 -1.04,0.875 -0.34,0.191 -0.71,0.285 -1.11,0.285 -0.73,0 -1.31,-0.283 -1.71,-0.849 -0.41,-0.566 -0.61,-1.357 -0.61,-2.373 0,-0.485 0.06,-0.924 0.19,-1.317 0.13,-0.393 0.3,-0.731 0.52,-1.015 0.22,-0.283 0.48,-0.502 0.77,-0.658 0.3,-0.156 0.61,-0.235 0.95,-0.235 z m 65.29,3.033 v 2.34 c -0.41,0.371 -0.79,0.651 -1.16,0.842 -0.36,0.191 -0.74,0.285 -1.15,0.285 -0.41,0 -0.76,-0.105 -1.05,-0.312 -0.28,-0.208 -0.42,-0.554 -0.42,-1.039 0,-0.266 0.06,-0.511 0.19,-0.737 0.13,-0.225 0.34,-0.426 0.63,-0.599 0.3,-0.173 0.69,-0.322 1.17,-0.45 0.49,-0.126 1.08,-0.237 1.79,-0.33 z m -110.88,4.608 v 18.312 l 4.916,-4.972 v -13.34 z"
         transform="matrix(0.8,0,0,-0.8,207.04,424.81)"
         fill="#002e6d"
         id="path2" />
    </g>
  </g>
</svg>
